<?xml version="1.0" encoding="UTF-8"?>
<svg version="1.1" xmlns="http://www.w3.org/2000/svg" width="364" height="240">
<path d="M0 0 C120.12 0 240.24 0 364 0 C364 79.2 364 158.4 364 240 C243.88 240 123.76 240 0 240 C0 160.8 0 81.6 0 0 Z " fill="#FEFEFE" transform="translate(0,0)"/>
<path d="M0 0 C7.97215638 6.69134447 14.17437626 15.48260307 15.3515625 26.05859375 C16.44621839 41.14494217 13.08884919 52.65185101 3.46875 64.34765625 C-1.22278583 69.41907353 -6.31731074 72.39394334 -12.6484375 75.05859375 C-13.72738281 75.60193359 -13.72738281 75.60193359 -14.828125 76.15625 C-24.63353539 79.29343809 -37.15985511 78.48291626 -46.3984375 74.12109375 C-57.88038214 67.29986747 -65.85028365 57.59667024 -69.31640625 44.54296875 C-71.13239705 30.95508468 -69.04067784 18.36975343 -60.625 7.33984375 C-44.54438948 -11.21959606 -20.18162042 -14.7939017 0 0 Z " fill="#F7F7F7" transform="translate(212.6484375,93.94140625)"/>
<path d="M0 0 C1.82826576 0.002062 1.82826576 0.002062 3.69346619 0.00416565 C6.26293737 0.01320537 8.83239344 0.03678157 11.40161133 0.07397461 C15.33018339 0.1287715 19.25663229 0.13550308 23.18554688 0.13476562 C25.68621622 0.14951237 28.18687122 0.16699787 30.6875 0.1875 C31.85950455 0.19083847 33.03150909 0.19417694 34.23902893 0.19761658 C41.2765645 0.32027705 46.26562322 0.75852658 51.515625 5.87109375 C53.07215861 8.36292804 53.66271313 9.80950877 54.3203125 12.57421875 C55.49335045 17.22089979 56.62507915 21.39252293 60.27734375 24.69140625 C68.14691156 27.62097366 76.96237098 27.60960439 85.27734375 27.69140625 C85.27734375 28.02140625 85.27734375 28.35140625 85.27734375 28.69140625 C74.71734375 28.69140625 64.15734375 28.69140625 53.27734375 28.69140625 C50.92162484 22.80210897 48.79013304 17.42915224 47.0859375 11.40625 C46.81910156 10.84035156 46.55226563 10.27445313 46.27734375 9.69140625 C43.23965177 8.67884226 41.11670655 8.54109058 37.93554688 8.49853516 C36.84431519 8.48247223 35.7530835 8.4664093 34.62878418 8.44985962 C29.65829092 8.40546049 24.68793 8.36438147 19.71728516 8.34130859 C17.0905677 8.32470646 14.46389618 8.29736134 11.83740234 8.25927734 C8.05672704 8.20473241 4.27710857 8.18267193 0.49609375 8.16796875 C-1.27115051 8.13396469 -1.27115051 8.13396469 -3.07409668 8.09927368 C-4.16532837 8.10212372 -5.25656006 8.10497375 -6.38085938 8.10791016 C-7.34221802 8.0998233 -8.30357666 8.09173645 -9.29406738 8.08340454 C-11.93727759 8.47346884 -11.93727759 8.47346884 -13.44250488 10.99227905 C-13.86495483 11.88299103 -14.28740479 12.773703 -14.72265625 13.69140625 C-15.04709717 14.33311768 -15.37153809 14.9748291 -15.70581055 15.63598633 C-16.12213745 16.53933716 -16.12213745 16.53933716 -16.546875 17.4609375 C-16.85302734 18.12158203 -17.15917969 18.78222656 -17.47460938 19.46289062 C-17.78333984 20.13642578 -18.09207031 20.80996094 -18.41015625 21.50390625 C-18.73048828 22.19677734 -19.05082031 22.88964844 -19.38085938 23.60351562 C-20.16397518 25.29831848 -20.94366666 26.99470289 -21.72265625 28.69140625 C-23.27376099 28.7054248 -23.27376099 28.7054248 -24.85620117 28.71972656 C-28.70510401 28.75970046 -32.55321371 28.82547874 -36.40161133 28.89892578 C-38.06491888 28.92709274 -39.72835921 28.94832858 -41.3918457 28.96240234 C-43.7879615 28.98389217 -46.18248809 29.03056913 -48.578125 29.08203125 C-49.68778877 29.08387421 -49.68778877 29.08387421 -50.81987 29.08575439 C-55.72758178 29.2239332 -58.32156797 30.13609763 -61.72265625 33.69140625 C-63.99116547 37.20071052 -63.99225702 40.22758797 -64.02905273 44.35253906 C-64.03737625 45.0132692 -64.04569977 45.67399933 -64.05427551 46.35475159 C-64.07832919 48.53473852 -64.087143 50.71442575 -64.09375 52.89453125 C-64.10272194 54.4166472 -64.11184389 55.93876227 -64.12110901 57.46087646 C-64.13759042 60.65183654 -64.14529719 63.84269182 -64.14819336 67.03369141 C-64.15356744 71.10693838 -64.19120923 75.17918904 -64.23693752 79.2521553 C-64.26680259 82.39733397 -64.27391899 85.54227584 -64.27491951 88.68758392 C-64.2791054 90.18820494 -64.2914739 91.68882774 -64.31243706 93.18930817 C-64.48565039 104.86426726 -64.48565039 104.86426726 -58.72265625 114.69140625 C-48.94463324 123.68642351 -30.89861065 120.93980387 -18.41015625 121.25390625 C-16.78319519 121.29722914 -15.15624196 121.34084709 -13.52929688 121.38476562 C-9.59383172 121.49037156 -5.6582831 121.59201689 -1.72265625 121.69140625 C-1.72265625 122.02140625 -1.72265625 122.35140625 -1.72265625 122.69140625 C-8.82097436 122.76780676 -15.91918543 122.82015284 -23.01782227 122.85620117 C-25.42997195 122.8712377 -27.84209453 122.89167224 -30.25415039 122.91772461 C-33.73200189 122.95433357 -37.20949019 122.97118454 -40.6875 122.984375 C-42.29116676 123.00760078 -42.29116676 123.00760078 -43.92723083 123.03129578 C-51.6423742 123.03300906 -58.75689902 122.16683222 -65.09765625 117.44140625 C-70.04557465 112.25787269 -71.09671951 107.30218853 -71.12670898 100.29077148 C-71.13700386 99.23567886 -71.13700386 99.23567886 -71.14750671 98.15927124 C-71.1656683 95.85597006 -71.16195387 93.55335674 -71.15625 91.25 C-71.16081592 89.63769817 -71.16612272 88.02539828 -71.1721344 86.4131012 C-71.18104378 83.04330509 -71.17866611 79.67374627 -71.16870117 76.30395508 C-71.15719569 71.994183 -71.17745756 67.68522837 -71.20661831 63.37556362 C-71.22499433 60.04945208 -71.22468542 56.72353613 -71.21898079 53.39738655 C-71.21882784 51.80862338 -71.22485005 50.21984674 -71.23727226 48.63113213 C-71.25221345 46.40778598 -71.24148571 44.18594666 -71.22436523 41.96264648 C-71.22419907 40.70024643 -71.2240329 39.43784637 -71.22386169 38.13719177 C-70.32158845 31.93406663 -66.32107065 27.72903841 -61.72265625 23.69140625 C-57.57543733 21.56982951 -54.0738123 21.4580634 -49.453125 21.49609375 C-48.77212234 21.49892365 -48.09111969 21.50175354 -47.38948059 21.50466919 C-45.2295217 21.515801 -43.06998831 21.54089168 -40.91015625 21.56640625 C-39.43945914 21.57644514 -37.96875549 21.5855694 -36.49804688 21.59375 C-32.90611339 21.61571712 -29.3144264 21.65019805 -25.72265625 21.69140625 C-25.5205957 21.07869873 -25.31853516 20.46599121 -25.11035156 19.8347168 C-24.84319336 19.0281665 -24.57603516 18.22161621 -24.30078125 17.390625 C-24.0368457 16.59229248 -23.77291016 15.79395996 -23.50097656 14.97143555 C-19.23341604 2.4699463 -12.64747112 -0.233026 0 0 Z " fill="#0E0E0E" transform="translate(170.72265625,55.30859375)"/>
<path d="M0 0 C5.53518328 4.02136638 10.29303537 9.06738902 12.328125 15.69140625 C12.59375 18.62890625 12.59375 18.62890625 12.578125 21.69140625 C12.58585937 23.20734375 12.58585937 23.20734375 12.59375 24.75390625 C12.32175926 27.76180385 11.59133618 29.96447418 10.328125 32.69140625 C7.44374721 31.39840931 5.45593079 30.03199262 3.328125 27.69140625 C0.26756483 28.46314098 0.26756483 28.46314098 -1.609375 30.62890625 C-5.05486823 34.07439948 -7.89313598 34.98200019 -12.734375 35.00390625 C-13.59160156 35.02066406 -14.44882813 35.03742188 -15.33203125 35.0546875 C-18.09292281 34.62603489 -18.94966397 33.8314652 -20.671875 31.69140625 C-20.011875 31.13453125 -19.351875 30.57765625 -18.671875 30.00390625 C-16.47421312 27.8659993 -16.47421312 27.8659993 -16.234375 25.12890625 C-16.52390351 22.68662716 -16.52390351 22.68662716 -17.796875 20.81640625 C-19.74778333 19.39827438 -19.74778333 19.39827438 -22.734375 19.94140625 C-25.58102521 20.55762849 -25.58102521 20.55762849 -27.671875 21.69140625 C-27.796875 13.94140625 -27.796875 13.94140625 -26.671875 11.69140625 C-29.971875 11.36140625 -33.271875 11.03140625 -36.671875 10.69140625 C-33.65229832 4.65225289 -29.43440144 1.12440072 -23.671875 -2.30859375 C-15.66400524 -4.86974613 -7.2672855 -4.11422131 0 0 Z " fill="#060606" transform="translate(199.671875,104.30859375)"/>
<path d="M0 0 C7.97215638 6.69134447 14.17437626 15.48260307 15.3515625 26.05859375 C16.44621839 41.14494217 13.08884919 52.65185101 3.46875 64.34765625 C-1.22278583 69.41907353 -6.31731074 72.39394334 -12.6484375 75.05859375 C-13.72738281 75.60193359 -13.72738281 75.60193359 -14.828125 76.15625 C-24.63353539 79.29343809 -37.15985511 78.48291626 -46.3984375 74.12109375 C-57.88038214 67.29986747 -65.85028365 57.59667024 -69.31640625 44.54296875 C-71.13239705 30.95508468 -69.04067784 18.36975343 -60.625 7.33984375 C-44.54438948 -11.21959606 -20.18162042 -14.7939017 0 0 Z M-57.3984375 7.80859375 C-65.5201857 17.78565972 -66.81563816 27.4340614 -65.88330078 39.94140625 C-64.790396 49.79345433 -58.57187192 57.77874553 -51.2578125 64.13671875 C-41.76138615 71.24410702 -32.39203164 73.10118164 -20.6484375 72.05859375 C-9.66631354 70.15142316 -0.98458738 64.5996444 5.66015625 55.7265625 C8.20372406 51.71442205 9.88864871 47.56304583 11.3515625 43.05859375 C11.6815625 42.06859375 12.0115625 41.07859375 12.3515625 40.05859375 C13.29218432 28.46207042 12.43743058 18.95255562 5.296875 9.2734375 C0.91341149 4.12400546 -3.59005264 0.07552224 -9.6484375 -2.94140625 C-11.35 -3.83859375 -11.35 -3.83859375 -13.0859375 -4.75390625 C-29.70982945 -10.51466089 -45.88744414 -4.29908177 -57.3984375 7.80859375 Z " fill="#121212" transform="translate(212.6484375,93.94140625)"/>
<path d="M0 0 C7.97215638 6.69134447 14.17437626 15.48260307 15.3515625 26.05859375 C15.99182034 34.88251085 14.90909457 42.60960389 12.3515625 51.05859375 C10.8665625 50.06859375 10.8665625 50.06859375 9.3515625 49.05859375 C9.6815625 47.90359375 10.0115625 46.74859375 10.3515625 45.55859375 C12.8604697 33.92971733 12.63617692 22.41058713 6.3515625 12.05859375 C1.1688684 4.78445813 -4.37835376 0.34471974 -12.6484375 -2.94140625 C-13.40253906 -3.30621094 -14.15664062 -3.67101562 -14.93359375 -4.046875 C-23.58603029 -6.89782172 -36.52221077 -6.01892782 -44.6484375 -1.94140625 C-53.91057421 3.91553314 -59.45363803 10.72865106 -63.5703125 20.80078125 C-64.6484375 23.05859375 -64.6484375 23.05859375 -66.6484375 24.05859375 C-67.3084375 25.04859375 -67.9684375 26.03859375 -68.6484375 27.05859375 C-66.70042729 14.98093043 -61.19147227 6.46205669 -51.828125 -1.37109375 C-35.94463382 -12.81403901 -15.52886287 -11.38325198 0 0 Z " fill="#1F1F1F" transform="translate(212.6484375,93.94140625)"/>
<path d="M0 0 C1.38294718 0.01329757 2.76582404 0.03715018 4.1484375 0.0703125 C4.85484375 0.07933594 5.56125 0.08835937 6.2890625 0.09765625 C8.03399848 0.12123647 9.77876045 0.15710789 11.5234375 0.1953125 C13.01450207 3.17744163 12.64285217 5.91140908 12.5234375 9.1953125 C10.54224395 11.17650605 6.78898686 10.38031661 4.0859375 10.3828125 C3.04469727 10.40118164 3.04469727 10.40118164 1.98242188 10.41992188 C0.16122849 10.42521092 -1.6594317 10.31700457 -3.4765625 10.1953125 C-5.4765625 8.1953125 -5.4765625 8.1953125 -5.7265625 5.1953125 C-5.35555032 0.74316637 -4.41800599 0.24820258 0 0 Z " fill="#111111" transform="translate(122.4765625,88.8046875)"/>
<path d="M0 0 C1.15280175 2.24126107 2.20537765 4.48347919 3.19140625 6.8046875 C6.93413403 15.18583861 10.91862748 18.95931374 19 23 C27.71845672 23.65015386 34.40368705 23.61736669 42 19 C42.66 19.33 43.32 19.66 44 20 C37.95988708 25.47385233 31.69609324 27.64288593 23.58203125 27.34375 C16.3104502 26.37567264 10.39850603 23.42651257 5.47265625 17.98828125 C1.28847132 12.33907666 -0.59533243 6.99515603 0 0 Z " fill="#303030" transform="translate(160,126)"/>
<path d="M0 0 C0.59167969 0.21398437 1.18335938 0.42796875 1.79296875 0.6484375 C1.08011719 1.20789063 0.36726563 1.76734375 -0.3671875 2.34375 C-7.34977806 8.18920266 -11.1981632 13.50604529 -14.8671875 21.83984375 C-16.20703125 24.6484375 -16.20703125 24.6484375 -18.20703125 25.6484375 C-18.86703125 26.6384375 -19.52703125 27.6284375 -20.20703125 28.6484375 C-18.2698095 16.63766262 -12.83991191 8.62750406 -3.8828125 0.546875 C-2.20703125 -0.3515625 -2.20703125 -0.3515625 0 0 Z " fill="#272727" transform="translate(164.20703125,92.3515625)"/>
<path d="M0 0 C0.33 0 0.66 0 1 0 C1.38558031 8.85406634 0.56943546 16.51168642 -2 25 C-2.99 24.34 -3.98 23.68 -5 23 C-4.690625 21.7625 -4.38125 20.525 -4.0625 19.25 C-2.94867766 14.35073951 -2.59967728 9.5136827 -2.34375 4.50390625 C-2 2 -2 2 0 0 Z " fill="#2D2D2D" transform="translate(227,120)"/>
<path d="M0 0 C0.57492188 0.23074219 1.14984375 0.46148437 1.7421875 0.69921875 C-0.02058445 2.37519887 -1.79205539 4.03981111 -3.5703125 5.69921875 C-4.31958008 6.41464844 -4.31958008 6.41464844 -5.08398438 7.14453125 C-8.91796875 10.69921875 -8.91796875 10.69921875 -12.2578125 10.69921875 C-10.82540562 7.36924193 -9.07544726 5.29992915 -6.3828125 2.88671875 C-5.36574219 1.94892578 -5.36574219 1.94892578 -4.328125 0.9921875 C-2.2578125 -0.30078125 -2.2578125 -0.30078125 0 0 Z " fill="#212121" transform="translate(164.2578125,92.30078125)"/>
<path d="M0 0 C1.734375 0.77734375 1.734375 0.77734375 2.734375 2.77734375 C1.68636719 3.08478516 1.68636719 3.08478516 0.6171875 3.3984375 C-0.29289063 3.66785156 -1.20296875 3.93726562 -2.140625 4.21484375 C-3.04554688 4.48167969 -3.95046875 4.74851562 -4.8828125 5.0234375 C-7.24837881 5.70348201 -7.24837881 5.70348201 -9.265625 6.77734375 C-10.255625 6.11734375 -11.245625 5.45734375 -12.265625 4.77734375 C-10.69029414 3.90850669 -9.10497991 3.05775307 -7.515625 2.21484375 C-6.63390625 1.73917969 -5.7521875 1.26351562 -4.84375 0.7734375 C-2.265625 -0.22265625 -2.265625 -0.22265625 0 0 Z " fill="#2C2C2C" transform="translate(175.265625,86.22265625)"/>
<path d="M0 0 C9.59453303 2.89066059 9.59453303 2.89066059 13 6 C9.30962722 7.37095624 7.29116165 6.60010967 3.75 5.0625 C2.85796875 4.68222656 1.9659375 4.30195312 1.046875 3.91015625 C0.37140625 3.60980469 -0.3040625 3.30945313 -1 3 C-0.67 2.01 -0.34 1.02 0 0 Z " fill="#2B2B2B" transform="translate(196,86)"/>
<path d="M0 0 C1.63542086 3.20970449 3.14031997 6.46807572 4.625 9.75 C5.07101563 10.73484375 5.51703125 11.7196875 5.9765625 12.734375 C6.31429687 13.48203125 6.65203125 14.2296875 7 15 C6.34 15.66 5.68 16.32 5 17 C1.72408048 11.18524285 -0.7342166 6.75479274 0 0 Z " fill="#353535" transform="translate(160,126)"/>
<path d="M0 0 C0.66 0 1.32 0 2 0 C3.59412284 3.18824568 3.10174735 6.62896662 3.0625 10.125 C3.05798828 10.87910156 3.05347656 11.63320312 3.04882812 12.41015625 C3.03703499 14.27347127 3.01909942 16.13674555 3 18 C2.67 18 2.34 18 2 18 C1.34 12.06 0.68 6.12 0 0 Z " fill="#0A0A0A" transform="translate(224,114)"/>
<path d="M0 0 C0.99 0 1.98 0 3 0 C6 5.75 6 5.75 6 8 C5.34 8 4.68 8 4 8 C3.67 8.66 3.34 9.32 3 10 C2.01 6.7 1.02 3.4 0 0 Z " fill="#272727" transform="translate(220,106)"/>
<path d="M0 0 C1.22589844 0.29197266 1.22589844 0.29197266 2.4765625 0.58984375 C3.41628906 0.82380859 3.41628906 0.82380859 4.375 1.0625 C1.375 3.0625 1.375 3.0625 -1.6875 2.8125 C-4.625 2.0625 -4.625 2.0625 -6.625 0.0625 C-3.99249612 -1.25375194 -2.82320944 -0.68563658 0 0 Z " fill="#202020" transform="translate(179.625,148.9375)"/>
<path d="M0 0 C1 4 1 4 0 6 C0.66 6 1.32 6 2 6 C1.67 7.65 1.34 9.3 1 11 C0.01 10.34 -0.98 9.68 -2 9 C-1.34 6.03 -0.68 3.06 0 0 Z " fill="#4A4A4A" transform="translate(224,134)"/>
<path d="M0 0 C0.33 0.66 0.66 1.32 1 2 C-0.98 2.33 -2.96 2.66 -5 3 C-5 2.34 -5 1.68 -5 1 C-5.66 0.67 -6.32 0.34 -7 0 C-3.88407501 -1.03864166 -2.9737344 -1.09036928 0 0 Z " fill="#4E4E4E" transform="translate(177,87)"/>
</svg>
